<?xml version="1.0" encoding="utf-8"?>
<!-- Generator: Adobe Illustrator 25.0.1, SVG Export Plug-In . SVG Version: 6.00 Build 0)  -->
<svg version="1.1" id="Layer_1" xmlns="http://www.w3.org/2000/svg" xmlns:xlink="http://www.w3.org/1999/xlink" x="0px" y="0px"
	 viewBox="0 0 713 26.06" style="enable-background:new 0 0 713 26.06;" xml:space="preserve">
<style type="text/css">
	.st0{fill:none;stroke:#000000;stroke-width:2;stroke-linecap:round;stroke-linejoin:round;stroke-miterlimit:10;}
</style>
<g>
	<g>
		<path class="st0" d="M205,17.13c0.17,5.19-0.9,6.89-5,7.48c-3.95,0.57-7.62-1.35-8.24-5.52c-0.59-3.97-2.45-3.97-5.25-3.97
			c-50.33,0.02-100.67,0-151,0.03c-3,0-6,0.31-9,0.48"/>
		<path class="st0" d="M522.5,16.13c54.5,0,109,0,163.5,0"/>
		<path class="st0" d="M508,17.13c-1.64,2.54-0.3,4.4,1.52,5.97c1.84,1.59,4.02,2.6,6.46,1.5c2.81-1.27,5.09-3.06,5.53-6.47
			c0.46-3.52-1.15-5.75-4.01-7.52c-5.36-3.32-11.07-2.46-16.47-0.83c-4.07,1.23-7.99,3.45-11.5,5.92
			c-12.36,8.71-26.12,9.77-40.56,8.48c-16.81-1.5-32.63-6.2-48.04-12.95c-9.31-4.08-18.51-8.57-28.94-9.72
			c-8.37-0.92-12.61,1.37-15.38,8.17c-0.87,2.15-0.14,4.94-0.14,7.44"/>
		<path class="st0" d="M355.5,9.13c-1.91-5.84-6.85-8.84-13.5-7.98c-7.82,1.01-15.49,3.14-22.44,6.62
			c-17.92,8.96-36.7,14.84-56.58,16.77c-15.39,1.49-30.06-1.17-42.99-10.41c-5.24-3.75-10.92-5.73-17.51-5.59
			c-5.15,0.11-8.84,1.87-11,6.59"/>
		<path class="st0" d="M480,8.13c0,6.58-4.97,10.65-11.47,8.91c-3.64-0.98-7.46-2.32-10.44-4.52c-9.07-6.68-19.25-8.52-30.08-7.84
			c-8.16,0.51-16.13,2.3-24,4.47c-0.98,0.27-2.29,0.36-2,1.98"/>
		<path class="st0" d="M311,11.13c0.5-1.42-0.86-1.76-1.52-1.94c-13.11-3.57-26.28-6.26-39.99-3.61
			c-5.79,1.12-10.58,4.06-15.53,6.98c-5.53,3.26-11.36,5.9-17.98,2.6c-0.96-0.48-1.73-0.95-1.98-2.03"/>
		<path class="st0" d="M397.5,10.63c-7.82,4.73-16.28,7.92-25,10.5c-3.1,0.92-6.27,1.24-9.5,1"/>
		<path class="st0" d="M316,10.63c10.61,5.96,21.4,11.41,34,11.5"/>
		<path class="st0" d="M25,14.63c-5.1-5.24-14.8-6.16-24-0.5"/>
		<path class="st0" d="M712,14.13c-5.73-3.68-11.9-4.61-18.5-3.02c-2.28,0.55-4,1.83-5.5,3.52"/>
		<path class="st0" d="M25.5,17.13c-7.61,5.51-15.47,5.32-23.5,1"/>
		<path class="st0" d="M711,18.13c-7.76,4.13-15.44,4.61-23-0.5"/>
		<path class="st0" d="M355.5,13.63c-2.55,1.85-4.91,4.18-8.5,3.5"/>
		<path class="st0" d="M357.5,13.63c2.55,1.85,4.91,4.18,8.5,3.5"/>
	</g>
</g>
</svg>
